<svg xmlns="http://www.w3.org/2000/svg" version="1.1" xmlns:xlink="http://www.w3.org/1999/xlink" width="512" height="512" x="0" y="0" viewBox="0 0 471 472" style="enable-background:new 0 0 512 512" xml:space="preserve" class=""><g><path fill="#fdd020" d="M400.336 192c0 66.273-53.727 120-120 120-66.277 0-120-53.727-120-120s53.723-120 120-120c66.273 0 120 53.727 120 120zM280.336 48c-4.422 0-8-3.582-8-8V8a8 8 0 0 1 16 0v32a8 8 0 0 1-8 8zM464.336 200h-32c-4.422 0-8-3.582-8-8s3.578-8 8-8h32a8 8 0 0 1 0 16zm0 0" opacity="1" data-original="#fdd020" class=""></path><path fill="#a3d4f7" d="M376.336 296c-5.852 0-11.691.586-17.426 1.742a71.862 71.862 0 0 0-100.648-51.094c-18.078-49.796-73.102-75.507-122.899-57.43-49.797 18.083-75.508 73.106-57.43 122.903C34.314 313.5-.144 349.601.509 393.242 1.164 436.88 36.69 471.93 80.336 472h296c48.598 0 88-39.398 88-88s-39.402-88-88-88zm0 0" opacity="1" data-original="#a3d4f7" class=""></path><g fill="#fdd020"><path d="m168.336 80-32-32M168.336 88a7.994 7.994 0 0 1-5.656-2.344l-32-32a8.001 8.001 0 0 1-2.184-7.781 8.002 8.002 0 0 1 13.496-3.531l32 32a8.005 8.005 0 0 1 1.73 8.719A7.996 7.996 0 0 1 168.337 88zM392.336 80l32-32M392.336 88a7.998 7.998 0 0 1-5.656-13.656l32-32a7.992 7.992 0 0 1 7.777-2.18c2.797.73 4.984 2.914 5.715 5.711s-.102 5.773-2.18 7.781l-32 32A8.001 8.001 0 0 1 392.336 88zm0 0" fill="#fdd020" opacity="1" data-original="#fdd020" class=""></path></g></g></svg>