<svg xmlns="http://www.w3.org/2000/svg" version="1.1" xmlns:xlink="http://www.w3.org/1999/xlink" width="512" height="512" x="0" y="0" viewBox="0 0 100 100" style="enable-background:new 0 0 512 512" xml:space="preserve" fill-rule="evenodd" class=""><g><path d="M30.02 54h-2.022A14 14 0 0 0 14 67.998v.004A13.997 13.997 0 0 0 27.998 82h48.004C85.942 82 94 73.942 94 64.002v-.004c0-8.9-6.46-16.29-14.948-17.74-2.944-10.519-12.609-18.245-24.065-18.245C41.197 28.013 30 39.209 30 53c0 .335.007.668.02 1zm-18.266 6.247a18 18 0 0 1 14.391-10.151c1.374-13.788 12.424-24.743 26.254-25.969A19.936 19.936 0 0 0 38 18c-11.038 0-20 8.962-20 20h-.002A11.998 11.998 0 0 0 6 49.998v.004a11.998 11.998 0 0 0 5.754 10.245z" fill="#000000" opacity="1" data-original="#000000" class=""></path></g></svg>