<svg xmlns="http://www.w3.org/2000/svg" version="1.1" xmlns:xlink="http://www.w3.org/1999/xlink" width="512" height="512" x="0" y="0" viewBox="0 0 682.667 682.667" style="enable-background:new 0 0 512 512" xml:space="preserve" class=""><g><defs><clipPath id="a" clipPathUnits="userSpaceOnUse"><path d="M0 512h512V0H0Z" fill="#000000" opacity="1" data-original="#000000"></path></clipPath></defs><g clip-path="url(#a)" transform="matrix(1.33333 0 0 -1.33333 0 682.667)"><path d="M0 0c0 66.002-53.505 119.507-119.506 119.507-47.264 0-88.115-27.441-107.504-67.256a89.307 89.307 0 0 1-35.904 7.503c-49.501 0-89.629-40.129-89.629-89.63s40.128-89.63 89.629-89.63H0c33.001 0 59.754 26.752 59.754 59.753C59.754-26.752 33.001 0 0 0" style="fill-opacity:1;fill-rule:nonzero;stroke:none" transform="translate(386.143 239.27)" fill="#8dc9ff" data-original="#8dc9ff" class=""></path><path d="M0 0c0-31.274-17.09-58.556-42.435-73.026C-60.554-30.123-103.038 0-152.555 0a119.21 119.21 0 0 1-15.468-.998c-.011.336-.011.662-.011.998 0 46.398 37.624 84.022 84.022 84.022S0 46.398 0 0" style="fill-opacity:1;fill-rule:nonzero;stroke:none" transform="translate(419.193 358.78)" fill="#ffce62" data-original="#ffce62" class=""></path><path d="M0 0h-146.076c-11.046 0-20 8.954-20 20s8.954 20 20 20H0c11.046 0 20-8.954 20-20S11.046 0 0 0" style="fill-opacity:1;fill-rule:nonzero;stroke:none" transform="translate(482 10)" fill="#cfd4e0" data-original="#cfd4e0"></path><path d="M0 0h-79.848c11.046 0 20 8.954 20 20s-8.954 20-20 20h-146.076c-11.046 0-20-8.954-20-20s8.954-20 20-20h79.848c-11.045 0-20-8.954-20-20s8.955-20 20-20H0c11.046 0 20 8.954 20 20S11.046 0 0 0" style="fill-opacity:1;fill-rule:nonzero;stroke:none" transform="translate(255.924 50)" fill="#cfd4e0" data-original="#cfd4e0"></path><path d="M0 0h-90c-11.046 0-20 8.954-20 20s8.954 20 20 20H0c11.046 0 20-8.954 20-20S11.046 0 0 0" style="fill-opacity:1;fill-rule:nonzero;stroke:none" transform="translate(346.076 99.765)" fill="#cfd4e0" data-original="#cfd4e0"></path><path d="M0 0h-20c-11.046 0-20 8.954-20 20s8.954 20 20 20H0c11.046 0 20-8.954 20-20S11.046 0 0 0" style="fill-opacity:1;fill-rule:nonzero;stroke:none" transform="translate(446.076 99.765)" fill="#cfd4e0" data-original="#cfd4e0"></path><path d="M0 0h20.06c7.11 0 13.93 1.24 20.26 3.53" style="stroke-width:20;stroke-linecap:round;stroke-linejoin:round;stroke-miterlimit:10;stroke-dasharray:none;stroke-opacity:1" transform="translate(366.08 119.76)" fill="none" stroke="#000000" stroke-width="20" stroke-linecap="round" stroke-linejoin="round" stroke-miterlimit="10" stroke-dasharray="none" stroke-opacity="" data-original="#000000" class=""></path><path d="M0 0h-112.85c-49.5 0-89.63 40.13-89.63 89.63 0 49.511 40.13 89.63 89.63 89.63 12.77 0 24.91-2.68 35.9-7.5 17.24 35.4 51.44 61.02 92.04 66.261 51.98 7.54 105.8-23.441 125.599-72.031 6.031-14.29 9.371-30 9.371-46.48 33 0 59.76-26.75 59.76-59.75 0-15.26-5.73-29.19-15.15-39.76" style="stroke-width:20;stroke-linecap:round;stroke-linejoin:round;stroke-miterlimit:10;stroke-dasharray:none;stroke-opacity:1" transform="translate(236.08 119.76)" fill="none" stroke="#000000" stroke-width="20" stroke-linecap="round" stroke-linejoin="round" stroke-miterlimit="10" stroke-dasharray="none" stroke-opacity="" data-original="#000000" class=""></path><path d="M0 0c22.584-9.901 40.303-28.844 48.576-52.249" style="stroke-width:20;stroke-linecap:round;stroke-linejoin:round;stroke-miterlimit:10;stroke-dasharray:none;stroke-opacity:1" transform="translate(159.133 291.522)" fill="none" stroke="#000000" stroke-width="20" stroke-linecap="round" stroke-linejoin="round" stroke-miterlimit="10" stroke-dasharray="none" stroke-opacity="" data-original="#000000" class=""></path><path d="M0 0c9.335 6.036 20.459 9.54 32.402 9.54" style="stroke-width:20;stroke-linecap:round;stroke-linejoin:round;stroke-miterlimit:10;stroke-dasharray:none;stroke-opacity:1" transform="translate(353.74 229.73)" fill="none" stroke="#000000" stroke-width="20" stroke-linecap="round" stroke-linejoin="round" stroke-miterlimit="10" stroke-dasharray="none" stroke-opacity="" data-original="#000000" class=""></path><path d="m0 0-6.654 23.245" style="stroke-width:20;stroke-linecap:round;stroke-linejoin:round;stroke-miterlimit:10;stroke-dasharray:none;stroke-opacity:1" transform="translate(300.828 478.755)" fill="none" stroke="#000000" stroke-width="20" stroke-linecap="round" stroke-linejoin="round" stroke-miterlimit="10" stroke-dasharray="none" stroke-opacity="" data-original="#000000" class=""></path><path d="m0 0-21.176 11.749" style="stroke-width:20;stroke-linecap:round;stroke-linejoin:round;stroke-miterlimit:10;stroke-dasharray:none;stroke-opacity:1" transform="translate(226.09 419.313)" fill="none" stroke="#000000" stroke-width="20" stroke-linecap="round" stroke-linejoin="round" stroke-miterlimit="10" stroke-dasharray="none" stroke-opacity="" data-original="#000000" class=""></path><path d="m0 0-21.176 11.75" style="stroke-width:20;stroke-linecap:round;stroke-linejoin:round;stroke-miterlimit:10;stroke-dasharray:none;stroke-opacity:1" transform="translate(465.448 286.498)" fill="none" stroke="#000000" stroke-width="20" stroke-linecap="round" stroke-linejoin="round" stroke-miterlimit="10" stroke-dasharray="none" stroke-opacity="" data-original="#000000" class=""></path><path d="m0 0-23.244-6.654" style="stroke-width:20;stroke-linecap:round;stroke-linejoin:round;stroke-miterlimit:10;stroke-dasharray:none;stroke-opacity:1" transform="translate(478.4 399.777)" fill="none" stroke="#000000" stroke-width="20" stroke-linecap="round" stroke-linejoin="round" stroke-miterlimit="10" stroke-dasharray="none" stroke-opacity="" data-original="#000000" class=""></path><path d="m0 0-11.75-21.177" style="stroke-width:20;stroke-linecap:round;stroke-linejoin:round;stroke-miterlimit:10;stroke-dasharray:none;stroke-opacity:1" transform="translate(407.464 489.048)" fill="none" stroke="#000000" stroke-width="20" stroke-linecap="round" stroke-linejoin="round" stroke-miterlimit="10" stroke-dasharray="none" stroke-opacity="" data-original="#000000" class=""></path><path d="M0 0c-.011.336-.011.662-.011.998 0 46.398 37.624 84.023 84.023 84.023 46.397 0 84.011-37.625 84.011-84.023 0-31.274-17.089-58.556-42.434-73.026" style="stroke-width:20;stroke-linecap:round;stroke-linejoin:round;stroke-miterlimit:10;stroke-dasharray:none;stroke-opacity:1" transform="translate(251.17 357.782)" fill="none" stroke="#000000" stroke-width="20" stroke-linecap="round" stroke-linejoin="round" stroke-miterlimit="10" stroke-dasharray="none" stroke-opacity="" data-original="#000000" class=""></path><path d="M0 0h5.924c11.046 0 20-8.954 20-20s-8.954-20-20-20h-146.076c-11.046 0-20 8.954-20 20s8.954 20 20 20H-80" style="stroke-width:20;stroke-linecap:round;stroke-linejoin:round;stroke-miterlimit:10;stroke-dasharray:none;stroke-opacity:1" transform="translate(476.076 50)" fill="none" stroke="#000000" stroke-width="20" stroke-linecap="round" stroke-linejoin="round" stroke-miterlimit="10" stroke-dasharray="none" stroke-opacity="" data-original="#000000" class=""></path><path d="M0 0c0-5.522-4.478-10-10-10-5.523 0-10 4.478-10 10s4.477 10 10 10C-4.478 10 0 5.522 0 0" style="fill-opacity:1;fill-rule:nonzero;stroke:none" transform="translate(446.076 50)" fill="#000000" data-original="#000000"></path><path d="M0 0h-79.848c11.046 0 20 8.954 20 20s-8.954 20-20 20h-146.076c-11.046 0-20-8.954-20-20s8.954-20 20-20h79.848c-11.045 0-20-8.954-20-20s8.955-20 20-20H0c11.046 0 20 8.954 20 20S11.046 0 0 0Z" style="stroke-width:20;stroke-linecap:round;stroke-linejoin:round;stroke-miterlimit:10;stroke-dasharray:none;stroke-opacity:1" transform="translate(255.924 50)" fill="none" stroke="#000000" stroke-width="20" stroke-linecap="round" stroke-linejoin="round" stroke-miterlimit="10" stroke-dasharray="none" stroke-opacity="" data-original="#000000" class=""></path><path d="M0 0h-90c-11.046 0-20 8.954-20 20s8.954 20 20 20H0c11.046 0 20-8.954 20-20S11.046 0 0 0Z" style="stroke-width:20;stroke-linecap:round;stroke-linejoin:round;stroke-miterlimit:10;stroke-dasharray:none;stroke-opacity:1" transform="translate(346.076 99.765)" fill="none" stroke="#000000" stroke-width="20" stroke-linecap="round" stroke-linejoin="round" stroke-miterlimit="10" stroke-dasharray="none" stroke-opacity="" data-original="#000000" class=""></path><path d="M0 0h-20c-11.046 0-20 8.954-20 20s8.954 20 20 20H0c11.046 0 20-8.954 20-20S11.046 0 0 0Z" style="stroke-width:20;stroke-linecap:round;stroke-linejoin:round;stroke-miterlimit:10;stroke-dasharray:none;stroke-opacity:1" transform="translate(446.076 99.765)" fill="none" stroke="#000000" stroke-width="20" stroke-linecap="round" stroke-linejoin="round" stroke-miterlimit="10" stroke-dasharray="none" stroke-opacity="" data-original="#000000" class=""></path></g></g></svg>