<svg xmlns="http://www.w3.org/2000/svg" version="1.1" xmlns:xlink="http://www.w3.org/1999/xlink" width="512" height="512" x="0" y="0" viewBox="0 0 497 497" style="enable-background:new 0 0 512 512" xml:space="preserve" class=""><g><path fill="#ffe177" d="M460.912 154.014c-51.491 1.137-94.154-39.683-95.29-91.174-.369-16.725 3.69-32.517 11.103-46.258 3.893-7.216-4.022-15.036-11.191-11.055-31.82 17.672-53.363 51.606-53.397 90.577-.05 56.994 46.486 103.649 103.48 103.737 31.872.05 60.395-14.288 79.439-36.879 5.242-6.219-.943-15.439-8.716-13.045a93.331 93.331 0 0 1-25.428 4.097z" opacity="1" data-original="#ffe177" class=""></path><path fill="#918291" d="M49.774 160.813c11.524-.761 22.321 2.145 31.358 7.656 2.584 1.576 5.969.317 6.778-2.599 4.29-15.473 18.469-26.832 35.308-26.832 3.396 0 6.683.462 9.803 1.327 2.421.671 4.904-.787 5.559-3.213 6.137-22.715 26.877-39.432 51.532-39.432 29.488 0 53.393 23.905 53.393 53.393 0 2.123-.128 4.215-.373 6.272-.324 2.725 1.848 5.054 4.593 5.05h.057c21.998 0 39.83 17.833 39.83 39.83 0 1.619-.108 3.212-.296 4.78 16.309 1.019 29.116 14.954 28.299 31.7-.791 16.206-14.6 28.734-30.825 28.734H53.393c-30.198 0-54.54-25.069-53.351-55.531 1.057-27.084 22.686-49.348 49.732-51.135z" opacity="1" data-original="#918291" class=""></path><path fill="#7a6d79" d="M287.316 207.045c.012-.105.017-.212.029-.318h-1.706c.003.167.012.333.012.501 0 16.706-13.543 30.25-30.25 30.25H23.392a53.224 53.224 0 0 1-19.645-3.747c7.827 19.763 27.097 33.747 49.645 33.747h232.01c16.707 0 30.25-13.543 30.25-30.25 0-16.063-12.522-29.194-28.336-30.183z" opacity="1" data-original="#7a6d79"></path><path fill="#b5adb6" d="M124.275 266.753a42.035 42.035 0 0 1 6.738.138 55.053 55.053 0 0 1-.656-8.464c0-30.147 24.439-54.586 54.586-54.586a54.363 54.363 0 0 1 34.667 12.421c6.889-13.336 20.794-22.459 36.839-22.459a41.31 41.31 0 0 1 15.38 2.96c8.668-30.009 36.324-51.963 69.126-51.963 39.744 0 71.964 32.219 71.964 71.964v.104c-.009 5.716 3.626 10.717 9.054 12.511 24.698 8.165 42.483 31.518 42.284 59-.246 34.014-28.506 61.196-62.521 61.196H126.79c-22.563 0-40.916-18.029-41.438-40.467-.514-22.119 16.836-41.039 38.923-42.355z" opacity="1" data-original="#b5adb6"></path><path fill="#a79ba7" d="M420.273 228.847c8.733 10.637 13.985 24.241 13.985 39.078 0 34.049-27.602 61.652-61.651 61.652H96.791c-1.936 0-3.838-.143-5.704-.4 7.212 12.208 20.498 20.4 35.704 20.4h275.816c34.049 0 61.651-27.603 61.651-61.652 0-27.909-18.546-51.483-43.985-59.078z" opacity="1" data-original="#a79ba7"></path><g fill="#01d0fb"><path d="M122.507 406.028a7.5 7.5 0 0 1-6.763-10.735l7.693-16.101a7.5 7.5 0 1 1 13.535 6.466l-7.693 16.101a7.5 7.5 0 0 1-6.772 4.269zM102.28 448.357a7.5 7.5 0 0 1-6.762-10.736l7.694-16.101a7.5 7.5 0 0 1 13.533 6.468l-7.694 16.101a7.498 7.498 0 0 1-6.771 4.268zM82.362 492.55a7.5 7.5 0 0 1-6.763-10.735l7.693-16.101a7.5 7.5 0 0 1 13.535 6.467l-7.693 16.101a7.501 7.501 0 0 1-6.772 4.268zM176.84 406.028a7.5 7.5 0 0 1-6.762-10.736l7.694-16.101a7.5 7.5 0 0 1 13.533 6.468l-7.694 16.101a7.497 7.497 0 0 1-6.771 4.268zM156.614 448.357a7.5 7.5 0 0 1-6.762-10.736l7.694-16.101a7.5 7.5 0 0 1 13.533 6.468l-7.694 16.101a7.498 7.498 0 0 1-6.771 4.268zM136.696 492.55a7.5 7.5 0 0 1-6.763-10.735l7.693-16.101a7.5 7.5 0 0 1 13.535 6.467l-7.693 16.101a7.501 7.501 0 0 1-6.772 4.268zM231.174 406.028a7.5 7.5 0 0 1-6.763-10.735l7.693-16.101a7.5 7.5 0 0 1 13.535 6.466l-7.693 16.101a7.5 7.5 0 0 1-6.772 4.269zM210.948 448.357a7.5 7.5 0 0 1-6.763-10.735l7.693-16.101a7.5 7.5 0 0 1 13.535 6.467l-7.693 16.101a7.503 7.503 0 0 1-6.772 4.268zM191.029 492.55a7.5 7.5 0 0 1-6.762-10.736l7.694-16.101a7.5 7.5 0 0 1 13.533 6.468l-7.694 16.101a7.498 7.498 0 0 1-6.771 4.268zM285.495 406.028a7.5 7.5 0 0 1-6.762-10.736l7.694-16.101a7.5 7.5 0 0 1 13.533 6.468l-7.694 16.101a7.498 7.498 0 0 1-6.771 4.268zM265.268 448.357a7.5 7.5 0 0 1-6.763-10.735l7.693-16.101a7.5 7.5 0 1 1 13.535 6.467l-7.693 16.101a7.502 7.502 0 0 1-6.772 4.268zM245.349 492.55a7.5 7.5 0 0 1-6.761-10.736l7.694-16.101a7.5 7.5 0 0 1 13.533 6.468l-7.694 16.101a7.5 7.5 0 0 1-6.772 4.268zM339.829 406.028a7.5 7.5 0 0 1-6.762-10.735l7.693-16.101a7.5 7.5 0 0 1 13.535 6.466l-7.693 16.101a7.503 7.503 0 0 1-6.773 4.269zM319.601 448.357a7.5 7.5 0 0 1-6.762-10.736l7.694-16.101a7.5 7.5 0 0 1 13.533 6.468l-7.694 16.101a7.497 7.497 0 0 1-6.771 4.268zM299.683 492.55a7.5 7.5 0 0 1-6.763-10.735l7.693-16.101a7.5 7.5 0 0 1 13.535 6.467l-7.693 16.101a7.5 7.5 0 0 1-6.772 4.268zM394.162 406.028a7.5 7.5 0 0 1-6.761-10.736l7.694-16.101a7.5 7.5 0 0 1 13.533 6.468l-7.694 16.101a7.501 7.501 0 0 1-6.772 4.268zM373.935 448.357a7.5 7.5 0 0 1-6.763-10.735l7.693-16.101a7.5 7.5 0 0 1 13.535 6.467l-7.693 16.101a7.502 7.502 0 0 1-6.772 4.268zM354.016 492.55a7.5 7.5 0 0 1-6.761-10.736l7.694-16.101a7.5 7.5 0 0 1 13.533 6.468l-7.694 16.101a7.5 7.5 0 0 1-6.772 4.268z" fill="#01d0fb" opacity="1" data-original="#01d0fb"></path></g></g></svg>