<svg xmlns="http://www.w3.org/2000/svg" version="1.1" xmlns:xlink="http://www.w3.org/1999/xlink" width="512" height="512" x="0" y="0" viewBox="0 0 48 48" style="enable-background:new 0 0 512 512" xml:space="preserve" class=""><g><g data-name="09-sun shower"><path fill="#ffd747" d="M14 5a9.008 9.008 0 0 1 8.78 7l.29.22a6.2 6.2 0 0 0-.51.75 8.316 8.316 0 0 0-3.18-.64 7.5 7.5 0 0 0-7.42 5.4 9.19 9.19 0 0 0-3.66 3.23A9 9 0 0 1 14 5z" opacity="1" data-original="#ffd747"></path><path fill="#9da3b5" d="M27 34H16.52C11.26 34 7 30.12 7 25.33a8 8 0 0 1 1.3-4.37 9.19 9.19 0 0 1 3.66-3.23 7.5 7.5 0 0 1 7.42-5.4 8.316 8.316 0 0 1 3.18.64 6.2 6.2 0 0 1 .51-.75A10.762 10.762 0 0 1 31.76 8c5.79 0 10.48 4.27 10.48 9.53 0 .1-.01.2-.02.3a8.547 8.547 0 0 1 4.78 7.5c0 4.79-4.26 8.67-9.52 8.67z" opacity="1" data-original="#9da3b5" class=""></path><path fill="#ffd747" d="M14 4a1 1 0 0 1-1-1V1a1 1 0 0 1 2 0v2a1 1 0 0 1-1 1zM21.78 7.22a1 1 0 0 1-.707-1.707l1.41-1.41A1 1 0 0 1 23.9 5.517l-1.41 1.41a.993.993 0 0 1-.71.293zM3 15H1a1 1 0 0 1 0-2h2a1 1 0 0 1 0 2zM6.22 7.22a.993.993 0 0 1-.707-.293L4.1 5.517A1 1 0 0 1 5.517 4.1l1.41 1.41a1 1 0 0 1-.707 1.71z" opacity="1" data-original="#ffd747"></path><path fill="#31c4ff" d="M40 42a3 3 0 0 1-6 0c0-1.66 3-5 3-5s3 3.34 3 5zM27 44a3 3 0 0 1-6 0c0-1.66 3-5 3-5s3 3.34 3 5zM32.78 34.08A2.5 2.5 0 0 1 33 35a3 3 0 0 1-6 0 2.5 2.5 0 0 1 .22-.92A17.96 17.96 0 0 1 30 30a17.96 17.96 0 0 1 2.78 4.08z" opacity="1" data-original="#31c4ff"></path><path fill="#fff566" d="M15 7a8.993 8.993 0 0 1 7.488 4.014A9 9 0 1 0 6.5 18.964 9.005 9.005 0 0 1 15 7z" opacity="1" data-original="#fff566"></path><path fill="#ffc247" d="M8.3 20.96a9.19 9.19 0 0 1 3.66-3.23 7.5 7.5 0 0 1 7.42-5.4 8.316 8.316 0 0 1 3.18.64 6.2 6.2 0 0 1 .51-.75l-.29-.22a8.878 8.878 0 0 0-.65-1.852c-.018.025-.041.047-.06.072a6.2 6.2 0 0 0-.51.75 8.316 8.316 0 0 0-3.18-.64 7.5 7.5 0 0 0-7.42 5.4 9.19 9.19 0 0 0-3.66 3.23c-.132.2-.238.421-.351.634A8.859 8.859 0 0 0 8.3 20.96z" opacity="1" data-original="#ffc247"></path><path fill="#bec3d2" d="M47 25.33a8.547 8.547 0 0 0-4.78-7.5c.01-.1.02-.2.02-.3 0-5.26-4.69-9.53-10.48-9.53a10.762 10.762 0 0 0-8.69 4.22 6.2 6.2 0 0 0-.51.75 8.316 8.316 0 0 0-3.18-.64 7.5 7.5 0 0 0-7.42 5.4 9.19 9.19 0 0 0-3.66 3.23 8.05 8.05 0 0 0-1.185 3.069c.032-.014.061-.033.093-.047C8.017 21.129 11.2 19 15 19a9.758 9.758 0 0 1 3.339.591 5.792 5.792 0 0 1 .536-.693A11.906 11.906 0 0 1 28 15c6.08 0 11 3.942 11 8.8a2.347 2.347 0 0 1-.021.277C41.974 25.449 44 28.034 44 31a6.288 6.288 0 0 1-.043.675A8.3 8.3 0 0 0 47 25.33z" opacity="1" data-original="#bec3d2" class=""></path><path fill="#707789" d="M27.257 34a9.381 9.381 0 0 1 .889-1.6C27.531 31.592 27 31 27 31a22.8 22.8 0 0 0-2.23 3z" opacity="1" data-original="#707789"></path><path fill="#0091ff" d="M28 33a2.059 2.059 0 0 1 .082-.511A5.517 5.517 0 0 0 27 35a2.993 2.993 0 0 0 5.976.242A2.987 2.987 0 0 1 28 33zM35 40a2.059 2.059 0 0 1 .082-.511A5.517 5.517 0 0 0 34 42a2.993 2.993 0 0 0 5.976.242A2.987 2.987 0 0 1 35 40zM22 42a2.059 2.059 0 0 1 .082-.511A5.517 5.517 0 0 0 21 44a2.993 2.993 0 0 0 5.976.242A2.987 2.987 0 0 1 22 42z" opacity="1" data-original="#0091ff"></path><g fill="#f6fafd"><ellipse cx="35.684" cy="13.695" rx="1.642" ry="2.286" transform="rotate(-45 35.702 13.702)" fill="#f6fafd" opacity="1" data-original="#f6fafd"></ellipse><ellipse cx="38.682" cy="16.708" rx=".825" ry="1.148" transform="rotate(-45 38.7 16.716)" fill="#f6fafd" opacity="1" data-original="#f6fafd"></ellipse><ellipse cx="31.427" cy="34.208" rx=".413" ry=".574" transform="rotate(-45 31.442 34.226)" fill="#f6fafd" opacity="1" data-original="#f6fafd"></ellipse><ellipse cx="38.427" cy="41.208" rx=".413" ry=".574" transform="rotate(-45 38.446 41.229)" fill="#f6fafd" opacity="1" data-original="#f6fafd"></ellipse><ellipse cx="25.427" cy="43.208" rx=".413" ry=".574" transform="rotate(-45 25.44 43.23)" fill="#f6fafd" opacity="1" data-original="#f6fafd"></ellipse><ellipse cx="16.682" cy="8.708" rx=".825" ry="1.148" transform="rotate(-45 16.69 8.713)" fill="#f6fafd" opacity="1" data-original="#f6fafd"></ellipse><ellipse cx="14.427" cy="8.208" rx=".413" ry=".574" transform="rotate(-45 14.434 8.212)" fill="#f6fafd" opacity="1" data-original="#f6fafd"></ellipse></g></g></g></svg>