<svg xmlns="http://www.w3.org/2000/svg" version="1.1" xmlns:xlink="http://www.w3.org/1999/xlink" width="512" height="512" x="0" y="0" viewBox="0 0 48 48" style="enable-background:new 0 0 512 512" xml:space="preserve" class=""><g><g data-name="13-shawer"><path fill="#106eb2" d="M6 12c0-.113 0 .114 0 0A11 11 0 0 1 17 1a11.784 11.784 0 0 1 10 6c1.017-.469 2-2 6-2 3.807 0 7.192 3.437 8 7 3.1 1.7 6 5.215 6 9a10 10 0 0 1-10 10H11A10 10 0 0 1 1 21a10.537 10.537 0 0 1 5-9z" opacity="1" data-original="#bec3d2" class=""></path><path fill="#52f1e5" d="M47 21c0-3.78-2.9-7.3-6-9a9.69 9.69 0 0 0-3.03-4.97A7.626 7.626 0 0 0 33 5a8.821 8.821 0 0 0-4.18.85c-.83.43-1.32.92-1.82 1.15a11.784 11.784 0 0 0-10-6A10.986 10.986 0 0 0 6.041 11.189 10.94 10.94 0 0 1 11 10a11.784 11.784 0 0 1 10 6c.5-.23.99-.72 1.82-1.15A8.821 8.821 0 0 1 27 14a7.626 7.626 0 0 1 4.97 2.03A9.69 9.69 0 0 1 35 21c3.1 1.7 6 5.22 6 9 0 .056-.007.11-.008.165A10 10 0 0 0 47 21z" opacity="1" data-original="#dce1eb" class=""></path><ellipse cx="21.682" cy="5.708" fill="#fafcff" rx=".825" ry="1.148" transform="rotate(-45 21.692 5.711)" opacity="1" data-original="#fafcff" class=""></ellipse><g fill="#70e1ff"><path d="M36 37a1 1 0 0 1-1-1v-3a1 1 0 0 1 2 0v3a1 1 0 0 1-1 1zM30 40a1 1 0 0 1-1-1v-2a1 1 0 0 1 2 0v2a1 1 0 0 1-1 1zM36 42a1 1 0 0 1-1-1v-2a1 1 0 0 1 2 0v2a1 1 0 0 1-1 1zM12 35a1 1 0 0 1-1-1v-2a1 1 0 0 1 2 0v2a1 1 0 0 1-1 1zM12 45a1 1 0 0 1-1-1v-3a1 1 0 0 1 2 0v3a1 1 0 0 1-1 1zM12 39a1 1 0 0 1-1-1v-1a1 1 0 0 1 2 0v1a1 1 0 0 1-1 1zM24 38a1 1 0 0 1-1-1v-3a1 1 0 0 1 2 0v3a1 1 0 0 1-1 1zM24 47a1 1 0 0 1-1-1v-1a1 1 0 0 1 2 0v1a1 1 0 0 1-1 1zM24 42a1 1 0 0 1-1-1v-1a1 1 0 0 1 2 0v1a1 1 0 0 1-1 1zM18 38a1 1 0 0 1-1-1v-1a1 1 0 0 1 2 0v1a1 1 0 0 1-1 1zM18 34a1 1 0 0 1-1-1v-1a1 1 0 0 1 2 0v1a1 1 0 0 1-1 1zM18 44a1 1 0 0 1-1-1v-1a1 1 0 0 1 2 0v1a1 1 0 0 1-1 1zM30 44a1 1 0 0 1-1-1v-1a1 1 0 0 1 2 0v1a1 1 0 0 1-1 1zM30 48a1 1 0 0 1-1-1v-1a1 1 0 0 1 2 0v1a1 1 0 0 1-1 1zM36 46a1 1 0 0 1-1-1v-1a1 1 0 0 1 2 0v1a1 1 0 0 1-1 1zM29 34a1 1 0 0 0 2 0v-3h-2zM24 32a1 1 0 0 0 1-1h-2a1 1 0 0 0 1 1z" fill="#70e1ff" opacity="1" data-original="#70e1ff" class=""></path></g><rect width="1" height="3" x="32" y="37" fill="#c4f3ff" rx=".5" opacity="1" data-original="#c4f3ff" class=""></rect><rect width="1" height="3" x="38" y="32" fill="#c4f3ff" rx=".5" opacity="1" data-original="#c4f3ff" class=""></rect><rect width="1" height="3" x="38" y="39" fill="#c4f3ff" rx=".5" opacity="1" data-original="#c4f3ff" class=""></rect><rect width="1" height="3" x="33" y="45" fill="#c4f3ff" rx=".5" opacity="1" data-original="#c4f3ff" class=""></rect><rect width="1" height="3" x="27" y="40" fill="#c4f3ff" rx=".5" opacity="1" data-original="#c4f3ff" class=""></rect><rect width="1" height="3" x="20" y="33" fill="#c4f3ff" rx=".5" opacity="1" data-original="#c4f3ff" class=""></rect><rect width="1" height="3" x="20" y="40" fill="#c4f3ff" rx=".5" opacity="1" data-original="#c4f3ff" class=""></rect><rect width="1" height="3" x="14" y="44" fill="#c4f3ff" rx=".5" opacity="1" data-original="#c4f3ff" class=""></rect><rect width="1" height="3" x="14" y="35" fill="#c4f3ff" rx=".5" opacity="1" data-original="#c4f3ff" class=""></rect><rect width="1" height="3" x="20" y="45" fill="#c4f3ff" rx=".5" opacity="1" data-original="#c4f3ff" class=""></rect><rect width="1" height="3" x="9" y="33" fill="#c4f3ff" rx=".5" opacity="1" data-original="#c4f3ff" class=""></rect><rect width="1" height="3" x="9" y="43" fill="#c4f3ff" rx=".5" opacity="1" data-original="#c4f3ff" class=""></rect><ellipse cx="35.684" cy="9.695" fill="#fafcff" rx="1.642" ry="2.286" transform="rotate(-45 35.702 9.7)" opacity="1" data-original="#fafcff" class=""></ellipse><ellipse cx="38.427" cy="11.208" fill="#fafcff" rx=".413" ry=".574" transform="rotate(-45 38.446 11.214)" opacity="1" data-original="#fafcff" class=""></ellipse></g></g></svg>