<svg xmlns="http://www.w3.org/2000/svg" version="1.1" xmlns:xlink="http://www.w3.org/1999/xlink" width="512" height="512" x="0" y="0" viewBox="0 0 512 512" style="enable-background:new 0 0 512 512" xml:space="preserve" class=""><g><g fill-rule="evenodd" clip-rule="evenodd"><path fill="#9bc9ff" d="M392.678 324.783H102.883c-40.738 0-73.884-33.134-73.884-73.875 0-40.74 33.145-73.879 73.884-73.879 7.18 0 12.996-5.822 12.996-13.001 0-12.006 2.388-23.792 6.994-34.875 8.399-20.209 23.585-36.816 42.057-48.341 20.137-12.564 43.636-18.848 67.321-18.848 25.695 0 51.302 7.369 72.457 22.1l.147.103.134.12a12.799 12.799 0 0 0 2.065 1.494l.139.081.13.096c14.487 10.705 26.28 24.732 33.527 41.271l1.13 2.58-2.504 1.291c-19.603 10.104-36.032 25.544-47.199 44.579-3.629 6.186-1.539 14.164 4.643 17.792 6.184 3.629 14.163 1.551 17.791-4.634 16.162-27.551 46.019-44.696 77.967-44.696 49.808 0 90.323 40.515 90.323 90.323 0 49.806-40.518 90.319-90.323 90.319z" opacity="1" data-original="#9bc9ff" class=""></path><path fill="#57a4ff" d="M323.671 421.281v1.009c0 8.83-7.17 16-16 16-8.84 0-16-7.17-16-16v-1.009c0-8.84 7.161-16 16-16 8.831-.001 16 7.16 16 16zm51.658 73.71V496c0 8.84-7.161 16-15.996 16-8.83 0-16.005-7.161-16.005-16v-1.009c0-8.84 7.175-16.001 16.005-16.001 8.835 0 15.996 7.161 15.996 16.001zM427 421.281v1.009c0 8.83-7.161 16-16 16-8.84 0-16-7.17-16-16v-1.009c0-8.84 7.161-16 16-16 8.839-.001 16 7.16 16 16zm-258.328 73.71V496c0 8.84-7.175 16-16.001 16-8.84 0-16-7.161-16-16v-1.009c0-8.84 7.161-16.001 16-16.001 8.826 0 16.001 7.161 16.001 16.001zm103.328 0V496c0 8.84-7.161 16-16.001 16s-16-7.161-16-16v-1.009c0-8.84 7.161-16.001 16-16.001 8.841 0 16.001 7.161 16.001 16.001zm-154.999-73.71v1.009c0 8.83-7.161 16-16 16-8.84 0-16-7.17-16-16v-1.009c0-8.84 7.161-16 16-16 8.839-.001 16 7.16 16 16zm103.328 0v1.009c0 8.83-7.161 16-16 16-8.831 0-16-7.17-16-16v-1.009c0-8.84 7.17-16 16-16 8.839-.001 16 7.16 16 16zm172.349-99.498H102.883c-39.081 0-70.884-31.789-70.884-70.875s31.803-70.879 70.884-70.879c8.835 0 15.996-7.165 15.996-16 0-54.624 50.86-99.064 113.371-99.064 26.51 0 51.199 7.953 70.742 21.562a15.76 15.76 0 0 0 2.547 1.844c14.293 10.562 25.623 24.227 32.562 40.063-19.84 10.227-36.798 25.939-48.412 45.728-4.467 7.623-1.91 17.425 5.712 21.897 7.618 4.472 17.42 1.92 21.897-5.703 15.633-26.656 44.52-43.214 75.379-43.214 48.153 0 87.323 39.171 87.323 87.323.001 48.147-39.169 87.318-87.322 87.318zm3.901-289.782c-26.638 0-50.879 14.76-63.351 37.661 15.241 13.241 27.35 29.529 35.072 48.02a118.097 118.097 0 0 1 24.378-2.543c25.34 0 48.865 7.948 68.2 21.472a72.126 72.126 0 0 0 7.774-32.534c0-39.745-32.331-72.076-72.073-72.076zm88.422 126.952c10.156-16.387 15.652-35.43 15.652-54.874C500.653 46.69 453.958 0 396.579 0c-37.308 0-71.351 20.057-89.79 51.45-21.958-11.807-47.53-18.486-74.54-18.486-74.568 0-136.207 50.884-144.438 116.164C38.201 156.44-.003 199.294-.003 250.909c0 56.723 46.152 102.875 102.885 102.875h289.795c65.794 0 119.324-53.52 119.324-119.319.001-28.629-10.141-54.927-27-75.512z" opacity="1" data-original="#57a4ff" class=""></path></g></g></svg>