<svg xmlns="http://www.w3.org/2000/svg" version="1.1" xmlns:xlink="http://www.w3.org/1999/xlink" width="512" height="512" x="0" y="0" viewBox="0 0 472 472" style="enable-background:new 0 0 512 512" xml:space="preserve" class=""><g><g fill="#fdd020"><path d="M416 160c0 57.438-46.563 104-104 104s-104-46.563-104-104S254.563 56 312 56s104 46.563 104 104zM464 168h-16a8 8 0 0 1 0-16h16a8 8 0 0 1 0 16zM296 32a8 8 0 0 1-8-8V8a8 8 0 0 1 16 0v16a8 8 0 0 1-8 8zM408 72c-3.234 0-6.152-1.95-7.39-4.938s-.551-6.43 1.734-8.718l16-16a8 8 0 1 1 11.312 11.312l-16 16A8.001 8.001 0 0 1 408 72zm0 0" fill="#fdd020" opacity="1" data-original="#fdd020" class=""></path></g><path fill="#a3d4f7" d="M352 360h11.031c30.172.727 58.364-14.957 73.66-40.969s15.297-58.273 0-84.285a83.124 83.124 0 0 0-73.66-40.969c-5.64 0-11.265.555-16.8 1.649-6.926-32.024-35.372-54.793-68.133-54.54a70.396 70.396 0 0 0-29.043 6.282c-16.063-41.29-59.04-65.5-102.676-57.844-43.64 7.656-75.809 45.047-76.86 89.34A88.634 88.634 0 0 0 74.946 209C33.665 209.734.457 243.164 0 284.45 0 326.175 37.344 360 80 360" opacity="1" data-original="#a3d4f7" class=""></path><path fill="#b7f9fe" d="M192 400h-20.688l18.344-18.344a8 8 0 0 0-11.312-11.312L160 388.688V368a8 8 0 0 0-16 0v20.688l-18.344-18.344a8 8 0 0 0-11.312 11.312L132.688 400H112a8 8 0 0 0 0 16h20.688l-18.344 18.344a8 8 0 1 0 11.312 11.312L144 427.312V448a8 8 0 0 0 16 0v-20.688l18.344 18.344a8 8 0 0 0 11.312-11.312L171.312 416H192a8 8 0 0 0 0-16zM320 384h-20.688l18.344-18.344a8 8 0 0 0-11.312-11.312L288 372.688V352a8 8 0 0 0-16 0v20.688l-18.344-18.344a8 8 0 0 0-11.312 11.312L260.688 384H240a8 8 0 0 0 0 16h20.688l-18.344 18.344a8 8 0 1 0 11.312 11.312L272 411.312V432a8 8 0 0 0 16 0v-20.688l18.344 18.344a8 8 0 0 0 11.312-11.312L299.312 400H320a8 8 0 0 0 0-16zM240 288h-20.688l18.344-18.344a8 8 0 0 0-11.312-11.312L208 276.688V256a8 8 0 0 0-16 0v20.688l-18.344-18.344a8 8 0 0 0-11.312 11.312L180.688 288H160a8 8 0 0 0 0 16h20.688l-18.344 18.344a8 8 0 1 0 11.312 11.312L192 315.312V336a8 8 0 0 0 16 0v-20.688l18.344 18.344a8 8 0 0 0 11.312-11.312L219.312 304H240a8 8 0 0 0 0-16zm0 0" opacity="1" data-original="#b7f9fe"></path></g></svg>