<svg xmlns="http://www.w3.org/2000/svg" version="1.1" xmlns:xlink="http://www.w3.org/1999/xlink" width="512" height="512" x="0" y="0" viewBox="0 0 48 48" style="enable-background:new 0 0 512 512" xml:space="preserve" class=""><g><g data-name="Layer 31"><path fill="#f8ce11" d="M46.835 15a9.959 9.959 0 0 1-9.913-10 10.039 10.039 0 0 1 .826-4 10 10 0 0 0 .165 20A9.908 9.908 0 0 0 47 14.989c-.055.001-.109.011-.165.011z" opacity="1" data-original="#f8ce11"></path><path fill="#4e93d1" d="M23 15a5.975 5.975 0 0 0-2.215.428 5.993 5.993 0 0 0-11.57 0A6 6 0 1 0 7 27h16a6 6 0 0 0 0-12z" opacity="1" data-original="#4e93d1" class=""></path><path fill="#4684bc" d="M26 24H10a5.993 5.993 0 0 1-5.466-8.466A6 6 0 0 0 7 27h16a6 6 0 0 0 5.466-3.534A5.974 5.974 0 0 1 26 24z" opacity="1" data-original="#4684bc"></path><path fill="#4e93d1" d="M38 17c-.067 0-.132.009-.2.01a10 10 0 0 0-19.6 0c-.067 0-.132-.01-.2-.01a9 9 0 0 0 0 18h20a9 9 0 0 0 0-18z" opacity="1" data-original="#4e93d1" class=""></path><path fill="#4684bc" d="M41 32H21a8.986 8.986 0 0 1-7.678-13.678A8.993 8.993 0 0 0 18 35h20a8.986 8.986 0 0 0 7.678-4.322A8.944 8.944 0 0 1 41 32z" opacity="1" data-original="#4684bc"></path><path fill="#f8ce11" d="M30 31h7l-3 6h3l-6 10 1-8h-3z" opacity="1" data-original="#f8ce11"></path><g fill="#4e93d1"><path d="M11.4 46a1.029 1.029 0 0 1-.288-.042 1 1 0 0 1-.67-1.245l.6-2a1 1 0 1 1 1.916.574l-.6 2A1 1 0 0 1 11.4 46zM13.2 40a1.024 1.024 0 0 1-.288-.042 1 1 0 0 1-.671-1.245l.6-2a1 1 0 0 1 1.916.574l-.6 2A1 1 0 0 1 13.2 40zM23.4 46a1.029 1.029 0 0 1-.288-.042 1 1 0 0 1-.67-1.245l.6-2a1 1 0 1 1 1.916.574l-.6 2A1 1 0 0 1 23.4 46zM25.2 40a1.024 1.024 0 0 1-.288-.042 1 1 0 0 1-.671-1.245l.6-2a1 1 0 0 1 1.916.574l-.6 2A1 1 0 0 1 25.2 40zM16.8 48a1.029 1.029 0 0 1-.288-.042 1 1 0 0 1-.67-1.245l.6-2a1 1 0 1 1 1.916.574l-.6 2A1 1 0 0 1 16.8 48zM18.6 42a1.036 1.036 0 0 1-.289-.042 1 1 0 0 1-.67-1.245l.6-2a1 1 0 1 1 1.916.574l-.6 2A1 1 0 0 1 18.6 42z" fill="#4e93d1" opacity="1" data-original="#4e93d1" class=""></path></g></g></g></svg>