<svg xmlns="http://www.w3.org/2000/svg" version="1.1" xmlns:xlink="http://www.w3.org/1999/xlink" width="512" height="512" x="0" y="0" viewBox="0 0 512 512" style="enable-background:new 0 0 512 512" xml:space="preserve" class=""><g><path fill="#9f9d9c" d="M462.768 65.51c-6.134 1.259-14.944-2.362-20.13-4.807-8.777-32.512-36.24-57.976-75.16-57.976-2.09 0-8.347-2.517-8.347-2.517-8.412.562-16.471 2.254-23.991 4.913-21.053 7.429-37.886 22.393-46.386 41.194-.683 1.51-2.436 2.19-3.97 1.565-7.365-3-15.538-4.68-24.153-4.68-32.354 0-58.582 23.548-58.582 52.597 0 3.045.304 6.025.858 8.928-14.519 8.78-24.07 23.675-24.07 40.573 0 26.998 24.377 48.884 54.447 48.884 5.463 0 10.735-.731 15.71-2.075 10.49 14.197 28.445 23.561 48.843 23.561 16.17 0 30.81-5.883 41.411-15.394 5.307 4.208 10.406 6.685 15.883 8.141-.473.239-.94.479-1.447.711 9.148 4.193 19.388 6.542 30.205 6.542 23.572-3.9 45.286-16.684 57.802-35.062 11.976-7.516 20.38-3.256 20.38-3.256 28.46-8.517 43.385-28.752 43.385-57.167-.002-28.738-13.729-46.419-42.688-54.675z" opacity="1" data-original="#9f9d9c" class=""></path><path fill="#81807f" d="M512 120.83c0 28.42-20.52 52.52-48.98 61.04 0 0-8.41-4.26-20.38 3.26-12.52 18.37-34.15 30.54-58.75 30.54-.43 0-.86 0-1.28-.02 33.71-24.3 55.08-60.4 55.08-100.71 0-49.01-31.6-91.81-78.56-114.73 2.05-.14 4.12-.21 6.21-.21 38.92 0 71.53 24.17 80.31 56.68 5.18 2.45 10.27 4.09 16.41 2.84C491.02 67.77 512 92.09 512 120.83z" opacity="1" data-original="#81807f" class=""></path><path fill="#6d6d6d" d="M470.896 149.08c0 11.507-2.781 22.695-7.881 32.78-6.428 1.937-13.279 3.06-20.377 3.266 7.624-10.044 12.805-23.344 12.805-36.046a7.722 7.722 0 0 1 7.726-7.726 7.73 7.73 0 0 1 7.727 7.726zM462.922 69.602c0 7.716-1.484 15.309-4.399 22.561a7.734 7.734 0 0 1-7.17 4.852 7.708 7.708 0 0 1-2.884-.567c-3.956-1.587-5.872-6.088-4.286-10.044 2.174-5.419 3.286-11.064 3.286-16.802 0-3.997-.752-9.045-1.823-12.919a78.438 78.438 0 0 1 16.411 2.833c.577 3.338.865 6.707.865 10.086z" opacity="1" data-original="#6d6d6d" class=""></path><path fill="#81807f" d="M335.139 164.397c-.833-.167-4.023-2.177-4.868-2.315-2.472-5.963-4.394-12.909-4.394-12.909-8.212-20.565-22.899-37.741-46.4-37.741-5.522 0-8.798-.139-13.835 1.365-1.21.361-2.751-1.143-3.732-1.787a4.07 4.07 0 0 1-1.573-1.983c-11.538-30.524-42.402-52.364-78.675-52.364a85.983 85.983 0 0 0-33.141 6.521c-24.798 10.235-43.61 31.589-48.892 57.381 4.442 6.387 1.908 10.85-1.504 15.504-50.874-5.468-98.583 31.845-98.121 78.5 0 43.606 39.714 78.955 88.698 78.955 14.839 0 28.823-3.255 41.112-8.995 4.208-6.423 6.047-7.825 13.887-8.035 16.684 16.234 42.17 26.605 70.734 26.605 6.603 0 13.043-.555 19.247-1.608 20.243-9.493 39.654-19.176 52.572-32.646 6.101-1.658 12.786 2.499 15.881 9.888 2.048.749 14.808 3.025 20.966 3.025 36.953 0 59.623-22.753 59.623-57.666 0-30.389-17.341-53.626-47.585-59.695z" opacity="1" data-original="#81807f" class=""></path><path fill="#6d6d6d" d="M392.3 222.78c0 34.91-29.94 63.22-66.9 63.22-6.15 0-12.13-.79-17.79-2.27h-.01c-2.14-.56-4.23-1.22-6.28-1.97-3.1-7.39-8.14-8.84-14.24-7.18-12.92 13.46-31.73 23.23-53.4 26.9 32.85-27.6 53.4-66.98 53.4-110.71 0-29.28-9.22-56.61-25.17-79.76.98.64 2.23.85 3.44.49a55.396 55.396 0 0 1 15.91-2.31c23.5 0 43.6 14.52 51.81 35.09 0 0-1.25 8.27 1.22 14.23.84.14 4.03 2.15 4.87 2.31 30.24 6.07 53.14 31.57 53.14 61.96zM136.448 139.026a7.716 7.716 0 0 1-7.077 4.636 7.738 7.738 0 0 1-3.101-.659c-8.592-3.76-18.584-6.047-28.145-6.933a72.824 72.824 0 0 1 1.504-15.504c.237 0 .484.01.721.031 11.208 1.051 22.015 3.832 32.121 8.262 3.915 1.709 5.697 6.262 3.977 10.167z" opacity="1" data-original="#6d6d6d" class=""></path><path fill="#565656" d="M319.099 247.184c-2.565 12.074-8.231 23.128-17.781 34.573a68.322 68.322 0 0 1-14.237-7.18c9.086-10.312 14.721-20.305 16.905-30.596.886-4.172 4.996-6.84 9.158-5.954 4.172.885 6.841 4.985 5.955 9.157zM339.156 160.824c-14.38-3.813-28.197-.477-42.86 4.753-3.293 1.174-7.084.028-8.858-2.984a7.64 7.64 0 0 1-.306-.574c-1.865-3.832-.258-8.458 3.575-10.322 8.239-3.637 13.25-5.726 25.425-7.355l.007.012c4.192-.464 10.428-.882 16.929-.074a55.337 55.337 0 0 1 3.461 13.186 4.18 4.18 0 0 0 2.627 3.358z" opacity="1" data-original="#565656" class=""></path><path fill="#ffcf57" d="M455.443 224.733a5.268 5.268 0 0 1 4.979-3.551h11.107l12.245 1.265c2.389 0 4.054 2.359 3.25 4.606l-13.831 41.615c-.36 1.01 1.477 2.026 2.456 2.275.14.035.287.054.441.054h9.868l11.491.996c7.192 0 11.278 8.246 6.918 13.972l-43.549 58.454c-2.321 3.055-7.164.749-6.255-2.979l.892-9.273 7.723-31.678a1.773 1.773 0 0 0-1.722-2.193h-23.951c-3.62 0-6.162-3.567-4.987-6.998z" opacity="1" data-original="#ffcf57"></path><g fill="#ffb948"><path d="m457.872 268.63 15.276-42.843c.804-2.246-.857-4.603-3.25-4.603h16.546c2.393 0 4.054 2.358 3.25 4.603l-15.276 42.843a1.776 1.776 0 0 0 1.672 2.37h-16.546a1.776 1.776 0 0 1-1.672-2.37zM507.854 284.97l-49.946 65.748c-2.322 3.055-7.162.75-6.252-2.978l3.8-15.571 35.852-47.198c4.355-5.726.272-13.97-6.92-13.97h16.546c7.191-.001 11.275 8.242 6.92 13.969z" fill="#ffb948" opacity="1" data-original="#ffb948"></path></g><path fill="#ffcf57" d="M125.136 252.247a9.185 9.185 0 0 1 8.681-6.191h42.866c4.165 0 7.068 4.113 5.666 8.03l-26.269 74.753c-.628 1.761 2.574 3.533 4.281 3.965.244.062.501.095.768.095h17.203l20.033 1.737c12.537 0 19.661 14.376 12.06 24.357l-75.918 101.903c-4.046 5.327-12.49 1.306-10.905-5.193l1.556-16.166 13.463-55.225a3.09 3.09 0 0 0-3.003-3.823H93.863c-6.311 0-10.742-6.219-8.695-12.2z" opacity="1" data-original="#ffcf57"></path><g fill="#ffb948"><path d="M129.37 328.772 156 254.084c1.401-3.915-1.494-8.025-5.666-8.025h28.845c4.172 0 7.067 4.111 5.666 8.025l-26.63 74.688c-.711 2.009.773 4.131 2.915 4.131h-28.845c-2.142 0-3.626-2.122-2.915-4.131zM216.503 357.257l-87.071 114.618c-4.049 5.326-12.486 1.308-10.899-5.192l6.624-27.145 62.501-82.281c7.593-9.982.474-24.353-12.063-24.353h28.845c12.537-.001 19.655 14.37 12.063 24.353z" fill="#ffb948" opacity="1" data-original="#ffb948"></path></g><path fill="#ffcf57" d="M321.058 346.18a6.857 6.857 0 0 1 6.481-4.622h14.457l15.937 1.646c3.11 0 5.277 3.071 4.23 5.995l-18.002 54.165c-.469 1.315 1.922 2.637 3.196 2.96.182.046.374.071.573.071h12.844l14.957 1.297c9.36 0 14.679 10.733 9.004 18.185l-56.682 76.082c-3.021 3.977-9.325.975-8.142-3.877l1.162-12.069 10.051-41.231a2.308 2.308 0 0 0-2.242-2.854h-31.174c-4.712 0-8.02-4.643-6.492-9.108z" opacity="1" data-original="#ffcf57"></path><g fill="#ffb948"><path d="m324.22 403.315 19.882-55.763c1.046-2.923-1.115-5.992-4.23-5.992h21.536c3.115 0 5.276 3.069 4.23 5.992l-19.882 55.763c-.531 1.5.577 3.084 2.177 3.084h-21.536c-1.601 0-2.708-1.584-2.177-3.084zM389.274 424.582l-65.008 85.576c-3.023 3.976-9.322.977-8.138-3.876l4.946-20.267 46.664-61.432c5.669-7.453.354-18.183-9.007-18.183h21.536c9.361-.001 14.676 10.729 9.007 18.182z" fill="#ffb948" opacity="1" data-original="#ffb948"></path></g><path fill="#81807f" d="M206.767 249.831c-12.411 6.911-27.708 10.99-44.255 10.99-24.119 0-45.583-8.667-59.324-22.137 0 0 6.768-34.109 55.515-27.277s48.064 38.424 48.064 38.424z" opacity="1" data-original="#81807f" class=""></path><path fill="#6d6d6d" d="M162.512 268.547c-25.356 0-48.951-8.874-64.733-24.347a7.727 7.727 0 0 1 10.819-11.034c12.918 12.664 32.568 19.928 53.914 19.928 14.728 0 28.731-3.463 40.496-10.014a7.728 7.728 0 0 1 10.509 2.991 7.729 7.729 0 0 1-2.992 10.51c-14.057 7.828-30.66 11.966-48.013 11.966z" opacity="1" data-original="#6d6d6d" class=""></path></g></svg>